<mxfile host="Electron" modified="2023-10-18T00:45:11.829Z" agent="Mozilla/5.0 (Windows NT 10.0; Win64; x64) AppleWebKit/537.36 (KHTML, like Gecko) draw.io/22.0.2 Chrome/114.0.5735.289 Electron/25.8.4 Safari/537.36" etag="bMNnKn0FpwXi8c2Ufm-F" version="22.0.2" type="device">
  <diagram name="第 1 页" id="mqonxN4DiOkeJIPs8lgm">
    <mxGraphModel dx="1434" dy="836" grid="1" gridSize="10" guides="1" tooltips="1" connect="1" arrows="1" fold="1" page="1" pageScale="1" pageWidth="827" pageHeight="1169" math="0" shadow="0">
      <root>
        <mxCell id="0" />
        <mxCell id="1" parent="0" />
        <mxCell id="GqdOLMewMtJ7u6QsVOZ7-7" style="rounded=0;orthogonalLoop=1;jettySize=auto;html=1;exitX=0;exitY=1;exitDx=0;exitDy=0;entryX=0.5;entryY=0;entryDx=0;entryDy=0;" edge="1" parent="1" source="GqdOLMewMtJ7u6QsVOZ7-1" target="GqdOLMewMtJ7u6QsVOZ7-2">
          <mxGeometry relative="1" as="geometry" />
        </mxCell>
        <mxCell id="GqdOLMewMtJ7u6QsVOZ7-8" style="rounded=0;orthogonalLoop=1;jettySize=auto;html=1;exitX=1;exitY=1;exitDx=0;exitDy=0;entryX=0.5;entryY=0;entryDx=0;entryDy=0;" edge="1" parent="1" source="GqdOLMewMtJ7u6QsVOZ7-1" target="GqdOLMewMtJ7u6QsVOZ7-3">
          <mxGeometry relative="1" as="geometry" />
        </mxCell>
        <mxCell id="GqdOLMewMtJ7u6QsVOZ7-17" style="edgeStyle=orthogonalEdgeStyle;rounded=0;orthogonalLoop=1;jettySize=auto;html=1;exitX=1;exitY=0;exitDx=0;exitDy=0;entryX=0;entryY=0;entryDx=0;entryDy=0;curved=1;dashed=1;endArrow=classicThin;endFill=1;startArrow=classicThin;startFill=1;" edge="1" parent="1" source="GqdOLMewMtJ7u6QsVOZ7-1" target="GqdOLMewMtJ7u6QsVOZ7-12">
          <mxGeometry relative="1" as="geometry">
            <Array as="points">
              <mxPoint x="392" y="330" />
              <mxPoint x="582" y="330" />
            </Array>
          </mxGeometry>
        </mxCell>
        <mxCell id="GqdOLMewMtJ7u6QsVOZ7-1" value="&lt;font style=&quot;font-size: 24px;&quot;&gt;1&lt;/font&gt;" style="ellipse;whiteSpace=wrap;html=1;aspect=fixed;fillColor=#1ba1e2;fontColor=#ffffff;strokeColor=#006EAF;" vertex="1" parent="1">
          <mxGeometry x="324" y="350" width="80" height="80" as="geometry" />
        </mxCell>
        <mxCell id="GqdOLMewMtJ7u6QsVOZ7-9" style="rounded=0;orthogonalLoop=1;jettySize=auto;html=1;exitX=0;exitY=1;exitDx=0;exitDy=0;entryX=0.5;entryY=0;entryDx=0;entryDy=0;" edge="1" parent="1" source="GqdOLMewMtJ7u6QsVOZ7-2" target="GqdOLMewMtJ7u6QsVOZ7-4">
          <mxGeometry relative="1" as="geometry" />
        </mxCell>
        <mxCell id="GqdOLMewMtJ7u6QsVOZ7-10" style="rounded=0;orthogonalLoop=1;jettySize=auto;html=1;exitX=1;exitY=1;exitDx=0;exitDy=0;entryX=0.5;entryY=0;entryDx=0;entryDy=0;" edge="1" parent="1" source="GqdOLMewMtJ7u6QsVOZ7-2" target="GqdOLMewMtJ7u6QsVOZ7-5">
          <mxGeometry relative="1" as="geometry" />
        </mxCell>
        <mxCell id="GqdOLMewMtJ7u6QsVOZ7-2" value="&lt;font style=&quot;font-size: 24px;&quot;&gt;2&lt;/font&gt;" style="ellipse;whiteSpace=wrap;html=1;aspect=fixed;fillColor=#1ba1e2;fontColor=#ffffff;strokeColor=#006EAF;" vertex="1" parent="1">
          <mxGeometry x="260" y="450" width="80" height="80" as="geometry" />
        </mxCell>
        <mxCell id="GqdOLMewMtJ7u6QsVOZ7-18" style="edgeStyle=orthogonalEdgeStyle;rounded=0;orthogonalLoop=1;jettySize=auto;html=1;exitX=1;exitY=0.5;exitDx=0;exitDy=0;entryX=0;entryY=0.5;entryDx=0;entryDy=0;curved=1;dashed=1;endArrow=classic;endFill=1;startArrow=classic;startFill=1;" edge="1" parent="1" source="GqdOLMewMtJ7u6QsVOZ7-3" target="GqdOLMewMtJ7u6QsVOZ7-13">
          <mxGeometry relative="1" as="geometry" />
        </mxCell>
        <mxCell id="GqdOLMewMtJ7u6QsVOZ7-3" value="&lt;font style=&quot;font-size: 24px;&quot;&gt;3&lt;/font&gt;" style="ellipse;whiteSpace=wrap;html=1;aspect=fixed;fillColor=#1ba1e2;fontColor=#ffffff;strokeColor=#006EAF;" vertex="1" parent="1">
          <mxGeometry x="390" y="450" width="80" height="80" as="geometry" />
        </mxCell>
        <mxCell id="GqdOLMewMtJ7u6QsVOZ7-4" value="&lt;font style=&quot;font-size: 24px;&quot;&gt;4&lt;/font&gt;" style="ellipse;whiteSpace=wrap;html=1;aspect=fixed;fillColor=#1ba1e2;fontColor=#ffffff;strokeColor=#006EAF;" vertex="1" parent="1">
          <mxGeometry x="210" y="560" width="80" height="80" as="geometry" />
        </mxCell>
        <mxCell id="GqdOLMewMtJ7u6QsVOZ7-5" value="&lt;font style=&quot;font-size: 24px;&quot;&gt;5&lt;/font&gt;" style="ellipse;whiteSpace=wrap;html=1;aspect=fixed;fillColor=#1ba1e2;fontColor=#ffffff;strokeColor=#006EAF;" vertex="1" parent="1">
          <mxGeometry x="320" y="560" width="80" height="80" as="geometry" />
        </mxCell>
        <mxCell id="GqdOLMewMtJ7u6QsVOZ7-11" value="&lt;font style=&quot;font-size: 24px;&quot;&gt;6&lt;/font&gt;" style="ellipse;whiteSpace=wrap;html=1;aspect=fixed;fillColor=#f0a30a;fontColor=#000000;strokeColor=#BD7000;" vertex="1" parent="1">
          <mxGeometry x="540" y="560" width="80" height="80" as="geometry" />
        </mxCell>
        <mxCell id="GqdOLMewMtJ7u6QsVOZ7-14" style="rounded=0;orthogonalLoop=1;jettySize=auto;html=1;exitX=1;exitY=1;exitDx=0;exitDy=0;entryX=0.5;entryY=0;entryDx=0;entryDy=0;" edge="1" parent="1" source="GqdOLMewMtJ7u6QsVOZ7-12" target="GqdOLMewMtJ7u6QsVOZ7-13">
          <mxGeometry relative="1" as="geometry" />
        </mxCell>
        <mxCell id="GqdOLMewMtJ7u6QsVOZ7-19" style="rounded=0;orthogonalLoop=1;jettySize=auto;html=1;exitX=0;exitY=0.5;exitDx=0;exitDy=0;entryX=0.5;entryY=0;entryDx=0;entryDy=0;fillColor=#e51400;strokeColor=#B20000;" edge="1" parent="1" source="GqdOLMewMtJ7u6QsVOZ7-12" target="GqdOLMewMtJ7u6QsVOZ7-2">
          <mxGeometry relative="1" as="geometry" />
        </mxCell>
        <mxCell id="GqdOLMewMtJ7u6QsVOZ7-12" value="&lt;font style=&quot;font-size: 24px;&quot;&gt;1&lt;/font&gt;" style="ellipse;whiteSpace=wrap;html=1;aspect=fixed;fillColor=#f0a30a;fontColor=#000000;strokeColor=#BD7000;" vertex="1" parent="1">
          <mxGeometry x="570" y="350" width="80" height="80" as="geometry" />
        </mxCell>
        <mxCell id="GqdOLMewMtJ7u6QsVOZ7-15" style="rounded=0;orthogonalLoop=1;jettySize=auto;html=1;exitX=0;exitY=1;exitDx=0;exitDy=0;entryX=0.5;entryY=0;entryDx=0;entryDy=0;" edge="1" parent="1" source="GqdOLMewMtJ7u6QsVOZ7-13" target="GqdOLMewMtJ7u6QsVOZ7-11">
          <mxGeometry relative="1" as="geometry" />
        </mxCell>
        <mxCell id="GqdOLMewMtJ7u6QsVOZ7-13" value="&lt;font style=&quot;font-size: 24px;&quot;&gt;3&lt;/font&gt;" style="ellipse;whiteSpace=wrap;html=1;aspect=fixed;fillColor=#f0a30a;fontColor=#000000;strokeColor=#BD7000;" vertex="1" parent="1">
          <mxGeometry x="610" y="450" width="80" height="80" as="geometry" />
        </mxCell>
      </root>
    </mxGraphModel>
  </diagram>
</mxfile>
